<svg width="15" height="16" viewBox="0 0 15 16" fill="none" xmlns="http://www.w3.org/2000/svg">
<path d="M14.7402 9.39031L13.3244 8.28319C13.343 8.11246 13.3577 7.91288 13.3577 7.70171C13.3577 7.49055 13.3423 7.29096 13.3244 7.12023L14.7415 6.01248C15.0046 5.80453 15.0771 5.43548 14.909 5.12808L13.4367 2.58073C13.2756 2.28744 12.9142 2.15329 12.585 2.27459L10.9143 2.94527C10.5947 2.71422 10.2591 2.51912 9.91183 2.36316L9.65768 0.591136C9.61598 0.254156 9.32331 0 8.97737 0H6.02506C5.67911 0 5.38645 0.254156 5.34538 0.584698L5.09059 2.36316C4.75427 2.51527 4.42376 2.70718 4.08937 2.94593L2.41425 2.27333C2.094 2.14818 1.72943 2.2804 1.56899 2.57433L0.0947404 5.12552C-0.0791799 5.41948 -0.00793903 5.80071 0.261621 6.01377L1.67744 7.12026C1.65497 7.3372 1.64408 7.52523 1.64408 7.70174C1.64408 7.87825 1.655 8.06628 1.67618 8.28322L0.259064 9.39163C-0.00345639 9.59955 -0.0753591 9.96857 0.0921531 10.276L1.56447 12.8233C1.72428 13.116 2.08497 13.2495 2.41614 13.1295L4.08678 12.4588C4.4064 12.6892 4.74272 12.8843 5.08993 13.0409L5.34409 14.8123C5.38582 15.1493 5.67848 15.4034 6.0244 15.4034H8.97671C9.32265 15.4034 9.61532 15.1493 9.65638 14.8187L9.91117 13.0409C10.2475 12.8888 10.578 12.6969 10.9124 12.4581L12.5875 13.1308C12.9065 13.2546 13.2723 13.1237 13.4328 12.8298L14.9128 10.2696C15.0765 9.96923 15.0046 9.60018 14.7402 9.39031ZM14.3519 9.95509L12.8231 12.5339L10.9856 11.7958C10.8816 11.7541 10.7635 11.7701 10.6737 11.8369C10.2757 12.1347 9.89132 12.3587 9.49724 12.5198C9.39197 12.5628 9.31688 12.6584 9.30084 12.7714L8.97674 14.7616L5.9814 14.7276L5.70092 12.772C5.68423 12.659 5.6098 12.5634 5.50453 12.5204C5.09441 12.3523 4.6997 12.1231 4.33065 11.8394C4.27352 11.7951 4.2042 11.7727 4.13489 11.7727C4.09446 11.7727 4.05402 11.7797 4.01488 11.7958L2.12474 12.5088L0.652422 9.96147C0.638945 9.93644 0.641502 9.90756 0.656905 9.89537L2.21458 8.67787C2.30315 8.60856 2.34936 8.49688 2.33525 8.38521C2.30122 8.11628 2.28582 7.89871 2.28582 7.70168C2.28582 7.50466 2.30185 7.28771 2.33525 7.01815C2.34936 6.90585 2.30315 6.7948 2.21458 6.72549L0.649264 5.44896L2.17805 2.87018L4.01554 3.60825C4.12015 3.65061 4.2376 3.63458 4.32809 3.56719C4.72536 3.26874 5.11045 3.0454 5.50453 2.88429C5.6098 2.84064 5.68423 2.74503 5.70029 2.63269L6.02506 0.641799L9.02102 0.676457L9.30084 2.63269C9.31754 2.74566 9.39197 2.84127 9.49724 2.88429C9.90672 3.0518 10.3014 3.28093 10.6711 3.56526C10.7616 3.63458 10.8804 3.65127 10.9863 3.60825L12.8764 2.89521L14.3487 5.44255C14.3622 5.46758 14.3596 5.49583 14.3442 5.50802L12.7866 6.72552C12.698 6.79483 12.6518 6.90588 12.6659 7.01818C12.6903 7.21328 12.7153 7.44755 12.7153 7.70171C12.7153 7.9565 12.6903 8.19014 12.6659 8.38524C12.6518 8.49691 12.698 8.60859 12.7866 8.6779L14.3423 9.89477C14.3589 9.90825 14.3622 9.93713 14.3519 9.95509Z" fill="#B2B2B2"/>
<path d="M7.50203 4.49268C5.73256 4.49268 4.29297 5.93227 4.29297 7.70174C4.29297 9.47122 5.73256 10.9108 7.50203 10.9108C9.27151 10.9108 10.7111 9.47122 10.7111 7.70174C10.7111 5.93227 9.27151 4.49268 7.50203 4.49268ZM7.50203 10.269C6.08621 10.269 4.9348 9.11757 4.9348 7.70174C4.9348 6.28592 6.08621 5.13451 7.50203 5.13451C8.91786 5.13451 10.0693 6.28592 10.0693 7.70174C10.0693 9.11757 8.91786 10.269 7.50203 10.269Z" fill="#B2B2B2"/>
</svg>
