<svg width="15" height="15" viewBox="0 0 15 15" fill="none" xmlns="http://www.w3.org/2000/svg">
<path d="M4.80059 4.80076L6.81859 2.7829V11.1368C6.81859 11.5134 7.12387 11.8186 7.50041 11.8186C7.87696 11.8186 8.18223 11.5134 8.18223 11.1368V2.78294L10.2001 4.80076C10.3332 4.9339 10.5077 5.00049 10.6821 5.00049C10.8566 5.00049 11.0311 4.93394 11.1643 4.80076C11.4306 4.53449 11.4306 4.10281 11.1643 3.83653L7.98269 0.654896C7.96669 0.638942 7.94991 0.623851 7.93251 0.609533C7.92496 0.603351 7.91701 0.597987 7.90932 0.592214C7.89923 0.584624 7.88937 0.576896 7.87887 0.569851C7.86946 0.563533 7.85969 0.558078 7.85001 0.552305C7.8406 0.546624 7.83137 0.54076 7.82164 0.535533C7.81178 0.53026 7.80169 0.525851 7.7916 0.521078C7.78146 0.516305 7.77155 0.51126 7.76114 0.506942C7.75141 0.502942 7.74151 0.499669 7.73164 0.496124C7.72055 0.492124 7.7096 0.487851 7.69819 0.484396C7.68837 0.481442 7.67841 0.479305 7.66855 0.476805C7.65691 0.473851 7.64537 0.470578 7.63355 0.468214C7.62219 0.465987 7.61069 0.464669 7.59923 0.462987C7.58873 0.461442 7.57832 0.459487 7.56764 0.458442C7.54664 0.456396 7.5256 0.455396 7.5045 0.45526C7.50314 0.45526 7.50182 0.455078 7.50046 0.455078C7.49914 0.455078 7.49778 0.45526 7.49646 0.45526C7.47537 0.455351 7.45428 0.456396 7.43323 0.458442C7.42282 0.459487 7.41264 0.461396 7.40232 0.462896C7.3906 0.464578 7.37887 0.465942 7.36728 0.46826C7.35573 0.470533 7.34455 0.473714 7.33323 0.476578C7.32296 0.479169 7.31269 0.481442 7.3025 0.484487C7.29155 0.487805 7.28087 0.491942 7.27014 0.495805C7.25991 0.499487 7.2496 0.502851 7.2395 0.507033C7.2295 0.511169 7.21996 0.516033 7.21023 0.520624C7.19978 0.525533 7.18923 0.530214 7.17896 0.535669C7.16969 0.540624 7.16096 0.54626 7.15191 0.551624C7.14178 0.557624 7.1316 0.563351 7.12173 0.569942C7.11187 0.576533 7.10264 0.583896 7.09314 0.590942C7.08478 0.597169 7.07628 0.602942 7.06819 0.609624C7.05159 0.623214 7.03573 0.637624 7.0205 0.652669C7.01978 0.653396 7.019 0.653987 7.01823 0.654715L3.83641 3.83649C3.57018 4.10276 3.57013 4.53444 3.83641 4.80071C4.10263 5.06703 4.53436 5.06694 4.80059 4.80076Z" fill="#B2B2B2"/>
<path d="M14.3182 7.27246C13.9416 7.27246 13.6364 7.57773 13.6364 7.95428V13.1816H1.36364V7.95428C1.36364 7.57773 1.05836 7.27246 0.681818 7.27246C0.305273 7.27246 0 7.57773 0 7.95428V13.8634C0 14.2399 0.305273 14.5452 0.681818 14.5452H14.3182C14.6947 14.5452 15 14.2399 15 13.8634V7.95428C15 7.57773 14.6947 7.27246 14.3182 7.27246Z" fill="#B2B2B2"/>
</svg>
