<svg width="15" height="15" viewBox="0 0 15 15" fill="none" xmlns="http://www.w3.org/2000/svg">
<path d="M11.501 1.88282H11.2344V1.61619C11.2344 0.72501 10.5094 0 9.61821 0H5.38186C4.49067 0 3.76566 0.72501 3.76566 1.61619V1.88282H3.49903C2.60785 1.88282 1.88281 2.60786 1.88281 3.49904V14.5605C1.88281 14.8032 2.07957 15 2.32227 15H12.6777C12.9204 15 13.1172 14.8032 13.1172 14.5605V3.49904C13.1172 2.60786 12.3922 1.88282 11.501 1.88282ZM4.64457 1.61619C4.64457 1.20964 4.9753 0.878906 5.38186 0.878906H9.61821C10.0248 0.878906 10.3555 1.20964 10.3555 1.61619V1.88282H4.64457V1.61619ZM8.2061 12.1758C8.61266 12.1758 8.94339 12.5065 8.94339 12.9131V14.1211H7.93947V12.1758H8.2061ZM7.06057 14.1211H6.05665V12.9131C6.05665 12.5065 6.38741 12.1758 6.79397 12.1758H7.06057V14.1211ZM12.2383 14.1211H9.82227V12.9131C9.82227 12.0219 9.09726 11.2969 8.20608 11.2969H6.79397C5.90278 11.2969 5.17774 12.0219 5.17774 12.9131V14.1211H2.76175V3.49904C2.76175 3.09249 3.09251 2.76173 3.49906 2.76173H11.501C11.9076 2.76173 12.2383 3.09249 12.2383 3.49904V14.1211H12.2383Z" fill="#B2B2B2"/>
<path d="M4.67578 3.76562C4.56006 3.76562 4.44697 3.81253 4.36497 3.89427C4.28323 3.9763 4.23633 4.08968 4.23633 4.20508C4.23633 4.3208 4.28323 4.43392 4.36497 4.51592C4.447 4.59766 4.56006 4.64453 4.67578 4.64453C4.7915 4.64453 4.90462 4.59766 4.98662 4.51592C5.06836 4.43418 5.11523 4.3208 5.11523 4.20508C5.11523 4.08968 5.06836 3.97627 4.98662 3.89427C4.90459 3.81253 4.7915 3.76562 4.67578 3.76562Z" fill="#B2B2B2"/>
<path d="M6.55859 3.76562C6.44287 3.76562 6.32949 3.81253 6.24775 3.89427C6.16602 3.9763 6.11914 4.08968 6.11914 4.20508C6.11914 4.3208 6.16602 4.43392 6.24775 4.51592C6.32949 4.59766 6.44287 4.64453 6.55859 4.64453C6.67429 4.64453 6.7874 4.59766 6.86914 4.51592C6.95117 4.43389 6.99805 4.3208 6.99805 4.20508C6.99805 4.08968 6.95114 3.97627 6.86914 3.89427C6.7874 3.81253 6.67402 3.76562 6.55859 3.76562Z" fill="#B2B2B2"/>
<path d="M4.67578 5.64844C4.56006 5.64844 4.44697 5.69531 4.36497 5.77705C4.28323 5.85911 4.23633 5.97217 4.23633 6.08789C4.23633 6.20361 4.28323 6.31699 4.36497 6.39873C4.447 6.48047 4.56006 6.52734 4.67578 6.52734C4.7915 6.52734 4.90462 6.48047 4.98662 6.39873C5.06836 6.31699 5.11523 6.20361 5.11523 6.08789C5.11523 5.97217 5.06836 5.85908 4.98662 5.77705C4.90459 5.69528 4.7915 5.64844 4.67578 5.64844Z" fill="#B2B2B2"/>
<path d="M6.55859 5.64844C6.44287 5.64844 6.32949 5.69531 6.24775 5.77705C6.16602 5.85911 6.11914 5.97217 6.11914 6.08789C6.11914 6.20361 6.16602 6.31699 6.24775 6.39873C6.32949 6.48047 6.44287 6.52734 6.55859 6.52734C6.67399 6.52734 6.7874 6.48047 6.8694 6.39873C6.95114 6.31699 6.99805 6.20361 6.99805 6.08789C6.99805 5.97217 6.95114 5.85908 6.8694 5.77705C6.7874 5.69528 6.67402 5.64844 6.55859 5.64844Z" fill="#B2B2B2"/>
<path d="M4.67578 7.53125C4.56006 7.53125 4.44697 7.57815 4.36497 7.65989C4.28323 7.74163 4.23633 7.85501 4.23633 7.9707C4.23633 8.08613 4.28323 8.19954 4.36497 8.28128C4.447 8.36331 4.56006 8.41016 4.67578 8.41016C4.7915 8.41016 4.90462 8.36328 4.98662 8.28128C5.06836 8.19954 5.11523 8.08616 5.11523 7.9707C5.11523 7.85501 5.06836 7.74163 4.98662 7.65989C4.90459 7.57815 4.7915 7.53125 4.67578 7.53125Z" fill="#B2B2B2"/>
<path d="M6.55859 7.53125C6.44287 7.53125 6.32949 7.57815 6.24775 7.65989C6.16602 7.74163 6.11914 7.85501 6.11914 7.9707C6.11914 8.08613 6.16602 8.19954 6.24775 8.28128C6.32949 8.36331 6.44287 8.41016 6.55859 8.41016C6.67399 8.41016 6.7874 8.36328 6.8694 8.28128C6.95114 8.19954 6.99805 8.08616 6.99805 7.9707C6.99805 7.85501 6.95114 7.74163 6.8694 7.65989C6.7874 7.57815 6.67402 7.53125 6.55859 7.53125Z" fill="#B2B2B2"/>
<path d="M4.67578 9.41406C4.56006 9.41406 4.44697 9.46094 4.36497 9.54294C4.28323 9.62468 4.23633 9.73776 4.23633 9.85352C4.23633 9.96921 4.28323 10.0826 4.36497 10.1643C4.447 10.2461 4.56006 10.293 4.67578 10.293C4.7915 10.293 4.90488 10.2461 4.98662 10.1643C5.06836 10.0826 5.11523 9.96921 5.11523 9.85352C5.11523 9.73779 5.06836 9.62468 4.98662 9.54294C4.90488 9.46094 4.7915 9.41406 4.67578 9.41406Z" fill="#B2B2B2"/>
<path d="M6.55859 9.41406C6.44287 9.41406 6.32949 9.46094 6.24775 9.54294C6.16602 9.62468 6.11914 9.73776 6.11914 9.85352C6.11914 9.96921 6.16602 10.0826 6.24775 10.1643C6.32949 10.2461 6.44287 10.293 6.55859 10.293C6.67429 10.293 6.7874 10.2461 6.86914 10.1643C6.95117 10.0826 6.99805 9.96921 6.99805 9.85352C6.99805 9.73779 6.95114 9.62468 6.86914 9.54294C6.7874 9.46094 6.67429 9.41406 6.55859 9.41406Z" fill="#B2B2B2"/>
<path d="M8.44114 3.76562C8.32571 3.76562 8.2123 3.81253 8.1306 3.89427C8.04886 3.9763 8.00195 4.08938 8.00195 4.20508C8.00195 4.3208 8.04886 4.43418 8.1306 4.51592C8.2123 4.59766 8.32539 4.64453 8.44114 4.64453C8.55686 4.64453 8.67024 4.59766 8.75198 4.51592C8.83372 4.43418 8.8806 4.3208 8.8806 4.20508C8.8806 4.08968 8.83372 3.97627 8.75198 3.89427C8.67024 3.81253 8.55686 3.76562 8.44114 3.76562Z" fill="#B2B2B2"/>
<path d="M10.3242 3.76562C10.2085 3.76562 10.0954 3.81253 10.0134 3.89427C9.93167 3.9763 9.88477 4.08968 9.88477 4.20508C9.88477 4.3208 9.93167 4.43418 10.0134 4.51592C10.0951 4.59766 10.2085 4.64453 10.3242 4.64453C10.4399 4.64453 10.5531 4.59766 10.6351 4.51592C10.7168 4.43418 10.7637 4.3208 10.7637 4.20508C10.7637 4.08938 10.7168 3.97627 10.6351 3.89427C10.5531 3.81253 10.44 3.76562 10.3242 3.76562Z" fill="#B2B2B2"/>
<path d="M8.44141 5.64844C8.32598 5.64844 8.21257 5.69531 8.13086 5.77705C8.0488 5.85911 8.00195 5.97217 8.00195 6.08789C8.00195 6.20361 8.04883 6.31699 8.13086 6.39873C8.21257 6.48047 8.32595 6.52734 8.44141 6.52734C8.55713 6.52734 8.67021 6.48047 8.75225 6.39873C8.83398 6.31699 8.88086 6.20361 8.88086 6.08789C8.88086 5.97217 8.83398 5.85908 8.75225 5.77705C8.67021 5.69528 8.55713 5.64844 8.44141 5.64844Z" fill="#B2B2B2"/>
<path d="M10.3242 5.64844C10.2085 5.64844 10.0954 5.69531 10.0134 5.77705C9.93167 5.85911 9.88477 5.97217 9.88477 6.08789C9.88477 6.20361 9.93167 6.3167 10.0134 6.39873C10.0954 6.48047 10.2085 6.52734 10.3242 6.52734C10.4399 6.52734 10.5531 6.48047 10.6351 6.39873C10.7168 6.31667 10.7637 6.20361 10.7637 6.08789C10.7637 5.97217 10.7168 5.85908 10.6351 5.77705C10.5531 5.69528 10.44 5.64844 10.3242 5.64844Z" fill="#B2B2B2"/>
<path d="M8.44114 7.53125C8.32571 7.53125 8.2123 7.57815 8.1306 7.65989C8.04886 7.74163 8.00195 7.85501 8.00195 7.9707C8.00195 8.08643 8.04886 8.19954 8.1306 8.28128C8.2123 8.36331 8.32568 8.41016 8.44114 8.41016C8.55686 8.41016 8.67024 8.36328 8.75198 8.28128C8.83372 8.19954 8.8806 8.08616 8.8806 7.9707C8.8806 7.85501 8.83372 7.74163 8.75198 7.65989C8.67024 7.57815 8.55686 7.53125 8.44114 7.53125Z" fill="#B2B2B2"/>
<path d="M10.3242 7.53125C10.2085 7.53125 10.0954 7.57815 10.0134 7.65989C9.93167 7.74163 9.88477 7.85501 9.88477 7.9707C9.88477 8.08613 9.93167 8.19954 10.0134 8.28128C10.0954 8.36331 10.2085 8.41016 10.3242 8.41016C10.4399 8.41016 10.5531 8.36328 10.6351 8.28128C10.7168 8.19954 10.7637 8.08616 10.7637 7.9707C10.7637 7.85501 10.7168 7.74163 10.6351 7.65989C10.5531 7.57815 10.44 7.53125 10.3242 7.53125Z" fill="#B2B2B2"/>
<path d="M8.44141 9.41406C8.32598 9.41406 8.21257 9.46094 8.13086 9.54294C8.0488 9.62468 8.00195 9.73776 8.00195 9.85352C8.00195 9.96921 8.04883 10.0826 8.13086 10.1643C8.21257 10.2461 8.32595 10.293 8.44141 10.293C8.55713 10.293 8.67051 10.2461 8.75225 10.1643C8.83398 10.0826 8.88086 9.96921 8.88086 9.85352C8.88086 9.73779 8.83398 9.62468 8.75225 9.54294C8.67051 9.46094 8.55713 9.41406 8.44141 9.41406Z" fill="#B2B2B2"/>
<path d="M10.3242 9.41406C10.2085 9.41406 10.0954 9.46094 10.0134 9.54294C9.93167 9.62468 9.88477 9.73776 9.88477 9.85352C9.88477 9.96921 9.93167 10.0826 10.0134 10.1643C10.0954 10.2461 10.2085 10.293 10.3242 10.293C10.4399 10.293 10.5531 10.2461 10.6351 10.1643C10.7168 10.0826 10.7637 9.96921 10.7637 9.85352C10.7637 9.73779 10.7168 9.62468 10.6351 9.54294C10.5531 9.46094 10.44 9.41406 10.3242 9.41406Z" fill="#B2B2B2"/>
</svg>
