<svg width="15" height="15" viewBox="0 0 15 15" fill="none" xmlns="http://www.w3.org/2000/svg">
<path d="M13.669 5.33958C12.8347 4.69914 11.73 4.34643 10.5583 4.34643C9.84983 4.34643 9.16598 4.47561 8.5515 4.71913C8.24437 4.13453 7.73198 3.61682 7.08018 3.24007C6.3128 2.79647 5.4004 2.56201 4.44174 2.56201C3.27006 2.56201 2.16536 2.91473 1.33105 3.55516C0.472684 4.214 0 5.0975 0 6.04284C0 6.89426 0.38948 7.70459 1.10008 8.33906L1.11217 10.4132C1.11279 10.5214 1.1677 10.6265 1.26404 10.6758C1.37841 10.7345 1.48748 10.7205 1.56747 10.6787L3.71914 9.47784C3.9577 9.50833 4.20021 9.52376 4.44174 9.52376C4.44181 9.52376 4.44187 9.52376 4.44193 9.52376C5.14142 9.52376 5.82778 9.39537 6.44596 9.15108C6.67154 9.5832 7.0091 9.9785 7.44756 10.3151C8.28187 10.9555 9.3866 11.3082 10.5583 11.3082C10.801 11.3082 11.0449 11.2926 11.2847 11.2618L13.4391 12.3972C13.5613 12.4595 13.652 12.4443 13.7391 12.3889C13.8294 12.3317 13.8872 12.2351 13.8879 12.1282L13.9 10.1235C14.6105 9.4891 15 8.67871 15 7.82732C15 6.88198 14.5273 5.99851 13.669 5.33958ZM4.4419 8.91148C4.44184 8.91148 4.44171 8.91148 4.44171 8.91148C4.19244 8.91148 3.942 8.89305 3.69741 8.85681C3.60983 8.84389 3.52546 8.86927 3.4613 8.92054L1.72133 9.89169L1.71153 8.20235C1.71165 8.19623 1.71153 8.19004 1.71122 8.18386C1.70721 8.09784 1.6672 8.01748 1.6009 7.9625C0.963398 7.43346 0.612245 6.7517 0.612245 6.04284C0.612245 4.46107 2.33017 3.17423 4.44174 3.17423C6.00615 3.17423 7.42053 3.905 7.99742 4.98041C7.80383 5.08755 7.61985 5.20734 7.44753 5.33958C6.58919 5.99848 6.11651 6.88198 6.11651 7.82732C6.11651 8.08458 6.15184 8.33723 6.22007 8.58209C5.67358 8.79803 5.06455 8.91148 4.4419 8.91148ZM13.3991 9.74698C13.3328 9.80196 13.2928 9.88238 13.2888 9.96837C13.2885 9.97394 13.2884 9.97948 13.2884 9.98502L13.2786 11.6206L11.5331 10.7007C11.4697 10.6523 11.3877 10.6287 11.3025 10.6413C11.0578 10.6776 10.8074 10.696 10.5582 10.696C8.829 10.696 7.36408 9.83291 6.89014 8.65164C6.88818 8.64589 6.88567 8.64029 6.88332 8.63459C6.78288 8.3784 6.72869 8.10751 6.72869 7.82732C6.72869 6.80955 7.44006 5.91396 8.50978 5.40463C8.51054 5.40433 8.51134 5.40414 8.5121 5.40384C8.52407 5.39912 8.53543 5.39349 8.54648 5.38746C9.13145 5.11581 9.82078 4.95868 10.5582 4.95868C12.6698 4.95868 14.3877 6.24555 14.3877 7.82732C14.3878 8.53614 14.0366 9.21791 13.3991 9.74698Z" fill="#B2B2B2"/>
<path d="M12.356 6.80176H8.75925C8.59018 6.80176 8.45312 6.93881 8.45312 7.10788C8.45312 7.27695 8.59018 7.414 8.75925 7.414H12.356C12.525 7.414 12.6622 7.27695 12.6622 7.10788C12.6622 6.93881 12.5251 6.80176 12.356 6.80176Z" fill="#B2B2B2"/>
<path d="M12.356 8.1875H8.75925C8.59018 8.1875 8.45312 8.32455 8.45312 8.49362C8.45312 8.66269 8.59018 8.79974 8.75925 8.79974H12.356C12.525 8.79974 12.6622 8.66269 12.6622 8.49362C12.6622 8.32455 12.5251 8.1875 12.356 8.1875Z" fill="#B2B2B2"/>
<path d="M13.669 5.33958C12.8347 4.69914 11.73 4.34643 10.5583 4.34643C9.84983 4.34643 9.16598 4.47561 8.5515 4.71913C8.24437 4.13453 7.73198 3.61682 7.08018 3.24007C6.3128 2.79647 5.4004 2.56201 4.44174 2.56201C3.27006 2.56201 2.16536 2.91473 1.33105 3.55516C0.472684 4.214 0 5.0975 0 6.04284C0 6.89426 0.38948 7.70459 1.10008 8.33906L1.11217 10.4132C1.11279 10.5214 1.1677 10.6265 1.26404 10.6758C1.37841 10.7345 1.48748 10.7205 1.56747 10.6787L3.71914 9.47784C3.9577 9.50833 4.20021 9.52376 4.44174 9.52376C4.44181 9.52376 4.44187 9.52376 4.44193 9.52376C5.14142 9.52376 5.82778 9.39537 6.44596 9.15108C6.67154 9.5832 7.0091 9.9785 7.44756 10.3151C8.28187 10.9555 9.3866 11.3082 10.5583 11.3082C10.801 11.3082 11.0449 11.2926 11.2847 11.2618L13.4391 12.3972C13.5613 12.4595 13.652 12.4443 13.7391 12.3889C13.8294 12.3317 13.8872 12.2351 13.8879 12.1282L13.9 10.1235C14.6105 9.4891 15 8.67871 15 7.82732C15 6.88198 14.5273 5.99851 13.669 5.33958ZM4.4419 8.91148C4.44184 8.91148 4.44171 8.91148 4.44171 8.91148C4.19244 8.91148 3.942 8.89305 3.69741 8.85681C3.60983 8.84389 3.52546 8.86927 3.4613 8.92054L1.72133 9.89169L1.71153 8.20235C1.71165 8.19623 1.71153 8.19004 1.71122 8.18386C1.70721 8.09784 1.6672 8.01748 1.6009 7.9625C0.963398 7.43346 0.612245 6.7517 0.612245 6.04284C0.612245 4.46107 2.33017 3.17423 4.44174 3.17423C6.00615 3.17423 7.42053 3.905 7.99742 4.98041C7.80383 5.08755 7.61985 5.20734 7.44753 5.33958C6.58919 5.99848 6.11651 6.88198 6.11651 7.82732C6.11651 8.08458 6.15184 8.33723 6.22007 8.58209C5.67358 8.79803 5.06455 8.91148 4.4419 8.91148ZM13.3991 9.74698C13.3328 9.80196 13.2928 9.88238 13.2888 9.96837C13.2885 9.97394 13.2884 9.97948 13.2884 9.98502L13.2786 11.6206L11.5331 10.7007C11.4697 10.6523 11.3877 10.6287 11.3025 10.6413C11.0578 10.6776 10.8074 10.696 10.5582 10.696C8.829 10.696 7.36408 9.83291 6.89014 8.65164C6.88818 8.64589 6.88567 8.64029 6.88332 8.63459C6.78288 8.3784 6.72869 8.10751 6.72869 7.82732C6.72869 6.2146 8.47353 4.95868 10.5582 4.95868C12.6429 4.95868 14.3878 6.24555 14.3878 7.82732C14.3878 8.53614 14.0366 9.21791 13.3991 9.74698Z" fill="#B2B2B2"/>
<path d="M12.356 6.80176H8.75925C8.59018 6.80176 8.45312 6.93881 8.45312 7.10788C8.45312 7.27695 8.59018 7.414 8.75925 7.414H12.356C12.525 7.414 12.6622 7.27695 12.6622 7.10788C12.6622 6.93881 12.5251 6.80176 12.356 6.80176Z" fill="#B2B2B2"/>
<path d="M12.356 8.1875H8.75925C8.59018 8.1875 8.45312 8.32455 8.45312 8.49362C8.45312 8.66269 8.59018 8.79974 8.75925 8.79974H12.356C12.525 8.79974 12.6622 8.66269 12.6622 8.49362C12.6622 8.32455 12.5251 8.1875 12.356 8.1875Z" fill="#B2B2B2"/>
</svg>
