<svg width="15" height="15" viewBox="0 0 15 15" fill="none" xmlns="http://www.w3.org/2000/svg">
<g clip-path="url(#clip0_612_368)">
<path d="M5.9375 11.875H0.3125C0.14 11.875 0 11.735 0 11.5625V6.875C0 5.15188 1.40188 3.75 3.125 3.75C4.84813 3.75 6.25 5.15188 6.25 6.875V11.5625C6.25 11.735 6.11 11.875 5.9375 11.875ZM0.625 11.25H5.625V6.875C5.625 5.49625 4.50375 4.375 3.125 4.375C1.74625 4.375 0.625 5.49625 0.625 6.875V11.25Z" fill="#B2B2B2"/>
<path d="M14.6875 11.875H5.9375C5.765 11.875 5.625 11.735 5.625 11.5625C5.625 11.39 5.765 11.25 5.9375 11.25H14.375V6.875C14.375 5.49625 13.2537 4.375 11.875 4.375H3.125C2.9525 4.375 2.8125 4.235 2.8125 4.0625C2.8125 3.89 2.9525 3.75 3.125 3.75H11.875C13.5981 3.75 15 5.15188 15 6.875V11.5625C15 11.735 14.86 11.875 14.6875 11.875Z" fill="#B2B2B2"/>
<path d="M8.4375 15C8.265 15 8.125 14.86 8.125 14.6875V11.5625C8.125 11.39 8.265 11.25 8.4375 11.25C8.60999 11.25 8.74999 11.39 8.74999 11.5625V14.6875C8.74999 14.86 8.60999 15 8.4375 15Z" fill="#B2B2B2"/>
<path d="M2.1875 4.375C2.015 4.375 1.875 4.235 1.875 4.0625V0.3125C1.875 0.14 2.015 0 2.1875 0C2.36 0 2.5 0.14 2.5 0.3125V4.0625C2.5 4.235 2.36 4.375 2.1875 4.375Z" fill="#B2B2B2"/>
<path d="M5.3125 2.5H2.1875C2.015 2.5 1.875 2.36 1.875 2.1875V0.3125C1.875 0.14 2.015 0 2.1875 0H5.3125C5.485 0 5.625 0.14 5.625 0.3125V2.1875C5.625 2.36 5.485 2.5 5.3125 2.5ZM2.5 1.875H5V0.625H2.5V1.875Z" fill="#B2B2B2"/>
</g>
<defs>
<clipPath id="clip0_612_368">
<rect width="15" height="15" fill="white"/>
</clipPath>
</defs>
</svg>
