<svg width="15" height="15" viewBox="0 0 15 15" fill="none" xmlns="http://www.w3.org/2000/svg">
<path d="M1.81055 2.07076V6.1419C1.81055 6.30454 1.94229 6.4363 2.10471 6.4363H6.17267C6.33509 6.4363 6.46683 6.30454 6.46683 6.1419V5.36995C6.46683 5.20732 6.33509 5.07556 6.17267 5.07556C6.01026 5.07556 5.8786 5.20732 5.8786 5.36995V5.8476H2.39887V2.36507H5.8786V3.0738C5.8786 3.23643 6.01026 3.36828 6.17267 3.36828C6.33509 3.36828 6.46683 3.23643 6.46683 3.0738V2.07076C6.46683 1.90813 6.33509 1.77637 6.17267 1.77637H2.10471C1.94229 1.77637 1.81055 1.90813 1.81055 2.07076Z" fill="#B2B2B2"/>
<path d="M3.52844 3.2002C3.36594 3.2002 3.23438 3.33195 3.23438 3.4945V4.71588C3.23438 4.87842 3.36594 5.01027 3.52844 5.01027H4.74884C4.91126 5.01027 5.043 4.87842 5.043 4.71588V3.4945C5.043 3.33195 4.91126 3.2002 4.74884 3.2002H3.52844ZM4.45477 4.42157H3.8226V3.78889H4.45477V4.42157Z" fill="#B2B2B2"/>
<path d="M6.17267 8.53809H2.10471C1.94229 8.53809 1.81055 8.66984 1.81055 8.83239V12.9037C1.81055 13.0663 1.94229 13.198 2.10471 13.198H6.17267C6.33509 13.198 6.46683 13.0663 6.46683 12.9037V8.83239C6.46683 8.66984 6.33509 8.53809 6.17267 8.53809ZM5.8786 12.6093H2.39887V9.12679H5.8786V12.6093Z" fill="#B2B2B2"/>
<path d="M8.88205 6.4363H12.9501C13.1124 6.4363 13.2442 6.30454 13.2442 6.1419V2.07076C13.2442 1.90813 13.1124 1.77637 12.9501 1.77637H8.88205C8.71964 1.77637 8.58789 1.90813 8.58789 2.07076V6.1419C8.58789 6.30454 8.71964 6.4363 8.88205 6.4363ZM9.17612 2.36507H12.6559V5.8476H9.17612V2.36507Z" fill="#B2B2B2"/>
<path d="M13.2442 12.9037V8.83239C13.2442 8.66984 13.1124 8.53809 12.9501 8.53809H8.88205C8.71964 8.53809 8.58789 8.66984 8.58789 8.83239V12.9037C8.58789 13.0663 8.71964 13.198 8.88205 13.198H12.9501C13.1124 13.198 13.2442 13.0663 13.2442 12.9037ZM12.6559 12.6093H9.17612V9.12679H12.6559V12.6093Z" fill="#B2B2B2"/>
<path d="M12.9512 7.79948C13.1135 7.79948 13.2452 7.66763 13.2452 7.50509C13.2452 7.34245 13.1135 7.21078 12.9512 7.21078H7.79419V2.03805C7.79419 1.8755 7.66245 1.74365 7.50012 1.74365C7.33753 1.74365 7.20587 1.8755 7.20587 2.03805V7.21078H3.30188C3.13956 7.21078 3.00781 7.34254 3.00781 7.50509C3.00781 7.66772 3.13956 7.79948 3.30188 7.79948H7.20587V12.904C7.20587 13.0666 7.33753 13.1983 7.50012 13.1983C7.66245 13.1983 7.79419 13.0666 7.79419 12.904V7.79948H12.9512Z" fill="#B2B2B2"/>
<path d="M3.52844 11.7959H4.74884C4.91126 11.7959 5.043 11.6641 5.043 11.5015V10.2801C5.043 10.1175 4.91126 9.98584 4.74884 9.98584H3.52844C3.36594 9.98584 3.23438 10.1175 3.23438 10.2801V11.5015C3.23438 11.6641 3.36594 11.7959 3.52844 11.7959ZM3.8226 10.5745H4.45477V11.2072H3.8226V10.5745Z" fill="#B2B2B2"/>
<path d="M11.5263 3.2002H10.3059C10.1435 3.2002 10.0117 3.33195 10.0117 3.4945V4.71588C10.0117 4.87842 10.1435 5.01027 10.3059 5.01027H11.5263C11.6888 5.01027 11.8204 4.87842 11.8204 4.71588V3.4945C11.8204 3.33195 11.6888 3.2002 11.5263 3.2002ZM11.2321 4.42157H10.6001V3.78889H11.2321V4.42157Z" fill="#B2B2B2"/>
<path d="M10.3059 11.7959H11.5263C11.6888 11.7959 11.8204 11.6641 11.8204 11.5015V10.2801C11.8204 10.1175 11.6888 9.98584 11.5263 9.98584H10.3059C10.1435 9.98584 10.0117 10.1175 10.0117 10.2801V11.5015C10.0117 11.6641 10.1435 11.7959 10.3059 11.7959ZM10.6001 10.5745H11.2321V11.2072H10.6001V10.5745Z" fill="#B2B2B2"/>
<path d="M2.04529 7.21198L2.02945 7.21565C1.87134 7.25303 1.77338 7.41156 1.81064 7.5698C1.8426 7.70532 1.96335 7.79677 2.09665 7.79677C2.11909 7.79677 2.1417 7.79411 2.1644 7.78871L2.18015 7.78504C2.33835 7.74775 2.43632 7.58923 2.39896 7.43098C2.36179 7.27283 2.20341 7.17478 2.04529 7.21198Z" fill="#B2B2B2"/>
<path d="M6.11385 3.92873L6.09802 3.93249C5.9399 3.96959 5.84185 4.12799 5.87893 4.2863C5.91061 4.42198 6.03146 4.5135 6.16503 4.5135C6.18719 4.5135 6.20971 4.51093 6.23242 4.50553L6.24816 4.50186C6.40637 4.46476 6.50442 4.30627 6.46734 4.14814C6.43026 3.98993 6.27187 3.89163 6.11385 3.92873Z" fill="#B2B2B2"/>
<path d="M0.294068 2.41116C0.456665 2.41116 0.588227 2.2794 0.588227 2.11686V0.588703H2.05957C2.22208 0.588703 2.35382 0.457035 2.35382 0.294397C2.35382 0.131851 2.22208 0 2.05957 0H0.294068C0.131745 0 0 0.131851 0 0.294397V2.11686C0 2.2794 0.131745 2.41116 0.294068 2.41116Z" fill="#B2B2B2"/>
<path d="M14.7062 0H12.9407C12.7782 0 12.6465 0.131851 12.6465 0.294397C12.6465 0.457035 12.7782 0.588703 12.9407 0.588703H14.4121V2.11686C14.4121 2.2794 14.5436 2.41116 14.7062 2.41116C14.8686 2.41116 15.0003 2.2794 15.0003 2.11686V0.294397C15.0003 0.131851 14.8686 0 14.7062 0Z" fill="#B2B2B2"/>
<path d="M2.05957 14.4102H0.588227V12.8822C0.588227 12.7197 0.456665 12.5879 0.294068 12.5879C0.131745 12.5879 0 12.7197 0 12.8822V14.7046C0 14.8672 0.131745 14.999 0.294068 14.999H2.05957C2.22208 14.999 2.35382 14.8672 2.35382 14.7046C2.35382 14.542 2.22208 14.4102 2.05957 14.4102Z" fill="#B2B2B2"/>
<path d="M14.7062 12.5879C14.5436 12.5879 14.4121 12.7197 14.4121 12.8822V14.4102H12.9407C12.7782 14.4102 12.6465 14.542 12.6465 14.7046C12.6465 14.8672 12.7782 14.999 12.9407 14.999H14.7062C14.8686 14.999 15.0003 14.8672 15.0003 14.7046V12.8822C15.0003 12.7197 14.8686 12.5879 14.7062 12.5879Z" fill="#B2B2B2"/>
</svg>
