<svg width="20" height="20" viewBox="0 0 20 20" fill="none" xmlns="http://www.w3.org/2000/svg">
<g clip-path="url(#clip0_614_53)">
<path d="M12.4999 10.8337C12.0391 10.8337 11.6666 11.207 11.6666 11.6669V15.0003C11.6666 15.4595 11.2932 15.8336 10.8332 15.8336H8.33319V3.33374C8.33319 2.62208 7.87986 1.98625 7.19826 1.74959L6.95153 1.66704H10.8332C11.2932 1.66704 11.6666 2.04118 11.6666 2.50046V5.00044C11.6666 5.46034 12.0391 5.83371 12.4999 5.83371C12.9607 5.83371 13.3331 5.46034 13.3331 5.00044V2.50046C13.3331 1.12215 12.2115 0.000488281 10.8332 0.000488281H1.87498C1.84324 0.000488281 1.81669 0.0146788 1.78587 0.0187986C1.74574 0.0154418 1.70744 0.000488281 1.6667 0.000488281C0.74752 0.000488281 0 0.747857 0 1.66704V16.6669C0 17.3786 0.453334 18.0144 1.13494 18.251L6.14999 19.9228C6.31997 19.9753 6.48904 20.0003 6.66665 20.0003C7.58583 20.0003 8.33319 19.2528 8.33319 18.3336V17.5003H10.8332C12.2115 17.5003 13.3331 16.3787 13.3331 15.0003V11.6669C13.3331 11.207 12.9607 10.8337 12.4999 10.8337Z" fill="#9E9E9E"/>
<path d="M19.7545 7.74414L16.4211 4.41089C16.1829 4.17255 15.8245 4.10084 15.5129 4.22993C15.2021 4.35917 14.9987 4.66327 14.9987 5.00003V7.5H11.6655C11.2054 7.5 10.832 7.87323 10.832 8.33328C10.832 8.79333 11.2054 9.16655 11.6655 9.16655H14.9987V11.6665C14.9987 12.0033 15.2021 12.3074 15.5129 12.4366C15.8245 12.5657 16.1829 12.494 16.4211 12.2558L19.7545 8.92241C20.0803 8.59664 20.0803 8.06991 19.7545 7.74414Z" fill="#9E9E9E"/>
</g>
<defs>
<clipPath id="clip0_614_53">
<rect width="20" height="20" fill="white"/>
</clipPath>
</defs>
</svg>
