<svg width="16" height="14" viewBox="0 0 16 14" fill="none" xmlns="http://www.w3.org/2000/svg">
<path d="M14.875 2.75H12.75V1.125C12.7497 0.893014 12.6575 0.670603 12.4934 0.506565C12.3294 0.342526 12.107 0.250256 11.875 0.25H1.125C0.893014 0.250256 0.670604 0.342526 0.506565 0.506565C0.342526 0.670603 0.250256 0.893014 0.25 1.125V8.375C0.250256 8.60699 0.342526 8.8294 0.506565 8.99343C0.670604 9.15747 0.893014 9.24974 1.125 9.25H1.25V11C1.24996 11.0495 1.2646 11.0978 1.29207 11.139C1.31954 11.1801 1.3586 11.2122 1.4043 11.2312C1.45001 11.2501 1.50031 11.255 1.54883 11.2454C1.59735 11.2357 1.64191 11.2119 1.67687 11.1769L3.60344 9.25H4.25V10.875C4.25026 11.107 4.34253 11.3294 4.50656 11.4934C4.6706 11.6575 4.89301 11.7497 5.125 11.75H12.3966L14.3231 13.6769C14.3581 13.7119 14.4027 13.7357 14.4512 13.7454C14.4997 13.755 14.55 13.7501 14.5957 13.7312C14.6414 13.7122 14.6805 13.6801 14.7079 13.639C14.7354 13.5978 14.75 13.5495 14.75 13.5V11.75H14.875C15.107 11.7497 15.3294 11.6575 15.4934 11.4934C15.6575 11.3294 15.7497 11.107 15.75 10.875V3.625C15.7497 3.39301 15.6575 3.1706 15.4934 3.00656C15.3294 2.84253 15.107 2.75026 14.875 2.75ZM3.5 8.75C3.43368 8.74998 3.37006 8.77628 3.32312 8.82312L1.75 10.3966V9C1.75 8.9337 1.72366 8.87011 1.67678 8.82322C1.62989 8.77634 1.5663 8.75 1.5 8.75H1.125C1.02557 8.74992 0.930235 8.71038 0.859926 8.64007C0.789618 8.56977 0.750083 8.47443 0.75 8.375V1.125C0.750083 1.02557 0.789618 0.930234 0.859926 0.859926C0.930235 0.789618 1.02557 0.750083 1.125 0.75H11.875C11.9744 0.750083 12.0698 0.789618 12.1401 0.859926C12.2104 0.930234 12.2499 1.02557 12.25 1.125V8.375C12.2499 8.47443 12.2104 8.56977 12.1401 8.64007C12.0698 8.71038 11.9744 8.74992 11.875 8.75H3.5ZM15.25 10.875C15.2499 10.9744 15.2104 11.0698 15.1401 11.1401C15.0698 11.2104 14.9744 11.2499 14.875 11.25H14.5C14.4337 11.25 14.3701 11.2763 14.3232 11.3232C14.2763 11.3701 14.25 11.4337 14.25 11.5V12.8966L12.6769 11.3231C12.6299 11.2763 12.5663 11.25 12.5 11.25H5.125C5.02557 11.2499 4.93023 11.2104 4.85993 11.1401C4.78962 11.0698 4.75008 10.9744 4.75 10.875V9.25H11.875C12.107 9.24974 12.3294 9.15747 12.4934 8.99343C12.6575 8.8294 12.7497 8.60699 12.75 8.375V3.25H14.875C14.9744 3.25008 15.0698 3.28962 15.1401 3.35993C15.2104 3.43023 15.2499 3.52557 15.25 3.625V10.875Z" fill="#0057FF"/>
<path d="M1.75 4.75H11.25C11.3163 4.75 11.3799 4.72366 11.4268 4.67678C11.4737 4.62989 11.5 4.5663 11.5 4.5C11.5 4.4337 11.4737 4.37011 11.4268 4.32322C11.3799 4.27634 11.3163 4.25 11.25 4.25H1.75C1.6837 4.25 1.62011 4.27634 1.57322 4.32322C1.52634 4.37011 1.5 4.4337 1.5 4.5C1.5 4.5663 1.52634 4.62989 1.57322 4.67678C1.62011 4.72366 1.6837 4.75 1.75 4.75Z" fill="#0057FF"/>
<path d="M1.75 3.75H11.25C11.3163 3.75 11.3799 3.72366 11.4268 3.67678C11.4737 3.62989 11.5 3.5663 11.5 3.5C11.5 3.4337 11.4737 3.37011 11.4268 3.32322C11.3799 3.27634 11.3163 3.25 11.25 3.25H1.75C1.6837 3.25 1.62011 3.27634 1.57322 3.32322C1.52634 3.37011 1.5 3.4337 1.5 3.5C1.5 3.5663 1.52634 3.62989 1.57322 3.67678C1.62011 3.72366 1.6837 3.75 1.75 3.75Z" fill="#0057FF"/>
<path d="M1.75 5.75H11.25C11.3163 5.75 11.3799 5.72366 11.4268 5.67678C11.4737 5.62989 11.5 5.5663 11.5 5.5C11.5 5.4337 11.4737 5.37011 11.4268 5.32322C11.3799 5.27634 11.3163 5.25 11.25 5.25H1.75C1.6837 5.25 1.62011 5.27634 1.57322 5.32322C1.52634 5.37011 1.5 5.4337 1.5 5.5C1.5 5.5663 1.52634 5.62989 1.57322 5.67678C1.62011 5.72366 1.6837 5.75 1.75 5.75Z" fill="#0057FF"/>
<path d="M1.75 2.75H11.25C11.3163 2.75 11.3799 2.72366 11.4268 2.67678C11.4737 2.62989 11.5 2.5663 11.5 2.5C11.5 2.4337 11.4737 2.37011 11.4268 2.32322C11.3799 2.27634 11.3163 2.25 11.25 2.25H1.75C1.6837 2.25 1.62011 2.27634 1.57322 2.32322C1.52634 2.37011 1.5 2.4337 1.5 2.5C1.5 2.5663 1.52634 2.62989 1.57322 2.67678C1.62011 2.72366 1.6837 2.75 1.75 2.75Z" fill="#0057FF"/>
<path d="M11.5 6.5C11.5 6.4337 11.4737 6.37011 11.4268 6.32322C11.3799 6.27634 11.3163 6.25 11.25 6.25H1.75C1.6837 6.25 1.62011 6.27634 1.57322 6.32322C1.52634 6.37011 1.5 6.4337 1.5 6.5C1.5 6.5663 1.52634 6.62989 1.57322 6.67678C1.62011 6.72366 1.6837 6.75 1.75 6.75H11.25C11.3163 6.75 11.3799 6.72366 11.4268 6.67678C11.4737 6.62989 11.5 6.5663 11.5 6.5Z" fill="#0057FF"/>
</svg>
